PathFileType	4	(X/Y/Z)	Patient4_TMGait_0pt4_02_right_22.trc.trc
DataRate	CameraRate	NumFrames	NumMarkers	Units	OrigDataRate	OrigDataStartFrame	OrigNumFrames
76.923076923077	76.923076923077	5	33	mm	76.923076923077	18	       141
Frame#	Time	Sacral			L.Shoulder			Chest			R.Shoulder			Neck			R.ASIS			L.ASIS			R.Thigh.Superior			R.Thigh.Lateral			R.Thigh.Inferior			R.Patella			L.Thigh.Superior			L.Thigh.Lateral			L.Thigh.Inferior			L.Patella			L.Shank.Superior			L.Shank.Lateral			L.Shank.Inferior			R.Shank.Superior			R.Shank.Lateral			R.Shank.Inferior			R.Heel			R.Midfoot.Superior			R.Midfoot.Lateral			R.Toe			L.Heel			L.Midfoot.Lateral			L.Midfoot.Superior			L.Toe			L.Elbow			L.Wrist			R.Elbow			R.Wrist			
		X1	Y1	Z1	X2	Y2	Z2	X3	Y3	Z3	X4	Y4	Z4	X5	Y5	Z5	X6	Y6	Z6	X7	Y7	Z7	X8	Y8	Z8	X9	Y9	Z9	X10	Y10	Z10	X11	Y11	Z11	X12	Y12	Z12	X13	Y13	Z13	X14	Y14	Z14	X15	Y15	Z15	X16	Y16	Z16	X17	Y17	Z17	X18	Y18	Z18	X19	Y19	Z19	X20	Y20	Z20	X21	Y21	Z21	X22	Y22	Z22	X23	Y23	Z23	X24	Y24	Z24	X25	Y25	Z25	X26	Y26	Z26	X27	Y27	Z27	X28	Y28	Z28	X29	Y29	Z29	X30	Y30	Z30	X31	Y31	Z31	X32	Y32	Z32	X33	Y33	Z33	

18	29.091000000000	889.669468239481	1007.801272793872	437.210446051819	1098.922393558242	1435.817611395372	276.463758003586	1178.067343214431	1364.917490784048	448.999277325639	1074.248721495518	1439.198463601240	611.127169838337	1061.810492509359	1497.335889035487	430.964626019826	1104.418583540843	946.546969076473	581.934798319444	1121.038366552670	963.743535234687	306.108532176723	1175.287330308812	763.995252843418	558.797796616910	1119.098474997243	646.179758700682	627.577087876724	1207.733862752240	605.266268008099	550.501638756378	1235.998536735235	525.096868639718	566.069103329055	1141.640980567014	740.288104980650	340.590781065810	1045.881852058838	636.373627892721	264.295318949173	1107.848240769214	549.125679384023	336.325160160735	1097.261360681024	481.637928032126	344.447664734969	1068.649992662300	411.701346256447	332.082000272837	976.029155511831	304.114895389580	273.335223853594	1010.735614026227	189.567033841701	347.689982807755	1220.428391016216	435.381848667209	577.667892165778	1166.272862137852	322.979460870312	643.175316561950	1233.666443928622	235.186845658998	591.723556035999	1138.951325990192	46.748128677266	567.382540002317	1302.604942438737	122.667055040680	605.610951988662	1223.995592032572	46.787889654956	640.521668513543	1427.376611563597	85.869588615494	630.702385172378	873.698309046459	38.960156410518	382.450818739469	947.310766005756	35.461580071037	301.722851382324	1030.418655052418	96.276288087410	331.134799588249	1158.817794568313	45.366587087769	300.835064731187	1143.390238050650	1096.450147573129	139.499639611916	1384.658360955142	1006.005048954505	175.088892854949	949.955381900848	1116.353259939124	724.476187884532	947.752238847013	855.249506185798	733.871214798748	
19	29.104000000000	891.642297530778	1006.948457749839	439.363746810654	1100.042989045640	1435.106795187669	278.635707915423	1179.163652868164	1364.410464731063	451.247064503237	1075.098792976168	1438.604954388159	613.248057424961	1062.661338643281	1496.656023042133	433.040131153834	1106.259578214537	945.775854944170	584.340907290950	1122.926368639204	962.998187318281	308.455060219988	1174.917840939869	761.138600413382	561.908163888697	1116.682965052470	643.833602768956	629.380019799903	1204.980844802577	602.479270026945	552.230152022018	1231.594417550728	523.226103659944	566.716646294628	1142.101139474923	739.003903868879	342.505187164953	1045.479044835560	635.828860378163	265.902943648574	1106.851835165257	547.970611513341	337.659936688038	1095.801899941151	480.289436877782	345.500310533159	1066.439257584563	410.665208807011	333.064655259730	972.690614003520	304.092196425804	274.113251215148	1006.396326431504	188.967315632102	347.982727174127	1217.968940748617	433.539646799687	578.675055880724	1165.448285364323	320.119441771167	643.721747658051	1234.346239764582	233.499405312939	592.133297056535	1142.291956313243	44.812144334704	567.102487069558	1305.586786536596	120.725811403913	605.406963445211	1227.148729565153	44.983431456583	640.281662701444	1430.355335025197	84.091258869337	630.397663003280	868.433986082651	38.785177993359	382.443524186824	942.039556330495	35.350274789851	301.739503522975	1025.214755435249	96.176377581466	331.180461779856	1153.609325984988	45.053072258675	300.811854810306	1145.099612799849	1095.664012854689	142.238975547200	1385.819909645162	1004.136093093587	178.724938772795	950.706264147350	1115.750305092558	726.071422759314	949.677722221639	854.547285712685	735.062108098848	
20	29.117000000000	893.793505706849	1005.865071406198	441.886237914510	1100.802683212203	1434.318492527841	280.961918013495	1180.124905331685	1363.937354642133	453.591594895635	1075.859256404752	1437.912107280380	615.560150368157	1063.268035287270	1495.871751785959	435.300406536319	1108.449038442750	944.916341373004	586.873122715831	1124.906957153909	962.173213131291	310.985009385796	1175.417156753473	758.575420002819	564.945033845538	1115.231706211586	641.556549952348	630.984866198463	1203.332170057133	599.955621089544	553.871258515638	1228.004850004237	521.068055273715	567.278581194314	1142.901493705201	737.624090283946	344.512339731660	1045.388271804848	635.139761432048	267.728671603715	1106.300804470613	546.686863281957	339.147525866899	1094.863271872332	478.712492894201	346.673618310350	1064.569418232641	409.442776394540	334.181543649811	969.521789032814	304.030268546870	275.021100265385	1002.119097836992	188.256899794088	348.317611613113	1215.600498027588	431.343081791595	579.465930471401	1163.659287334949	317.461584266644	643.922346885109	1233.165145285204	231.479260729507	592.177796168792	1141.986342085578	43.790976134754	566.332416033561	1305.467977244993	118.008846384172	604.707367041729	1226.530798651554	43.399494593586	639.669613362696	1429.850032966921	80.452983791697	629.843843238907	863.133246400776	38.513410456985	382.429642580848	936.755713682853	35.168597975156	301.764198989101	1019.988458177045	96.054951603798	331.226789118541	1148.413613824372	44.751419609403	300.776748686692	1146.504109600063	1094.785694782987	145.120429307048	1386.449518975497	1001.353906813364	182.358197353215	952.129646121308	1114.702984990463	727.875770063817	952.999307959618	853.388746256063	736.449036139385	
21	29.130000000000	896.081973990641	1004.578020842532	444.748311469488	1101.231520279715	1433.465206282634	283.445679111209	1180.968312990412	1363.496816143322	456.037613759326	1076.547850300111	1437.122225141541	618.069618196040	1063.656205982525	1494.996374091356	437.751940413947	1110.950811627105	943.995409858881	589.515749610957	1126.943575487455	961.266274617330	313.686381586698	1176.766421809293	756.312612529022	567.861940248513	1114.691178870715	639.390189992331	632.404956846257	1202.730658369998	597.694804399901	555.435802540090	1225.257622950833	518.683875260519	567.765839522721	1144.060875997249	736.164861611231	346.600737158079	1045.655809457094	634.284588492817	269.786332388839	1106.286717458089	545.268795859858	340.798831216543	1094.563616177140	476.885905668593	347.970631829866	1063.123004406363	408.021036060387	335.446583324637	966.589736227365	303.946286459931	276.069918645018	997.942412476222	187.446428985356	348.694481694469	1213.429426185228	428.855375899141	580.059188507469	1161.195833293635	314.965007637362	643.898408412593	1230.503308073370	229.126079730677	591.928059317127	1138.629408978605	43.356747893936	565.281940867557	1302.745080558928	114.712527912118	603.642252384657	1222.819323747168	41.965795592047	638.857397325547	1426.518475165757	75.466142190369	629.100305299929	857.801572384910	38.190889246760	382.398162165682	931.469413755003	34.936254582724	301.792071762131	1014.767829172130	95.911301736070	331.266827064058	1143.248627014987	44.441088387740	300.723700790863	1147.541767674640	1093.801945508786	148.148550873748	1386.486961412288	997.693941473749	185.927823780678	954.217666529739	1113.232415352903	729.918141602810	957.680352763138	851.816063378158	738.053932416966	
22	29.143000000000	898.454350824697	1003.132987303580	447.909201112428	1101.369695051764	1432.572414003668	286.086868254168	1181.715440423790	1363.092958731568	458.585818717597	1077.192660303011	1436.250078936781	620.778271935533	1063.863790581688	1494.057996447107	440.398136259634	1113.711146004338	943.055317965714	592.248372535340	1128.991642498427	960.289474904344	316.537312742809	1178.871800113904	754.339349391553	570.619488920312	1114.977016482115	637.393507802679	633.688017979878	1203.047701842941	595.696051377083	556.928246071315	1223.341653278428	516.171614947708	568.205036584565	1145.594037219557	734.663549350587	348.763218462104	1046.338153658852	633.252855459898	272.088035527405	1106.914449594322	543.727938239330	342.626501934816	1095.031499724690	474.807805397573	349.394503267249	1062.198579529079	406.404275273418	336.871298955770	963.982285425721	303.879885672183	277.268793534946	993.924296932450	186.571080566494	349.110710698422	1211.552970904850	426.189997834352	580.498862515039	1158.389815445986	312.630374753249	643.787255176704	1226.821460629370	226.523871354305	591.475586355353	1132.992304527477	43.243262595468	564.154038943845	1298.043897643332	111.132497671058	602.363125773267	1216.851936737257	40.671575383941	638.005668024730	1421.131868232241	69.771829007515	628.234232239923	852.454611273632	37.910940974760	382.336930949185	926.197669842004	34.701700099644	301.816610375016	1009.597024259203	95.754256794612	331.290877717666	1138.132596376176	44.098503630918	300.646634254196	1148.154507844473	1092.707031911712	151.335314045582	1385.860953896507	993.188645421993	189.368078984029	956.967639109541	1111.377741740746	732.216258997492	963.675273110776	849.892028783348	739.891239417305	
